<svg width="58" height="58" viewBox="0 0 58 58" fill="none" xmlns="http://www.w3.org/2000/svg">
<g clip-path="url(#clip0_1739_8806)">
<path d="M24.215 57.71C10.44 55.245 0 43.355 0 29C0 13.05 13.05 0 29 0C44.95 0 58 13.05 58 29C58 43.355 47.56 55.245 33.785 57.71L32.19 56.405H25.81L24.215 57.71Z" fill="#205FFF"/>
<path d="M40.3094 37.1225L41.6144 29.0025H33.9294V23.3475C33.9294 21.0275 34.7994 19.2875 38.2794 19.2875H42.0494V11.8925C40.0194 11.6025 37.6994 11.3125 35.6694 11.3125C28.9994 11.3125 24.3594 15.3725 24.3594 22.6225V29.0025H17.1094V37.1225H24.3594V57.5675C25.9544 57.8575 27.5494 58.0025 29.1444 58.0025C30.7394 58.0025 32.3344 57.8575 33.9294 57.5675V37.1225H40.3094Z" fill="white"/>
</g>
<defs>
<clipPath id="clip0_1739_8806">
<rect width="58" height="58" fill="white"/>
</clipPath>
</defs>
</svg>
