<svg width="58" height="58" viewBox="0 0 58 58" fill="none" xmlns="http://www.w3.org/2000/svg">
<g clip-path="url(#clip0_1739_8796)">
<path d="M14.7073 57.7949C11.258 57.638 9.38425 57.064 8.13796 56.5779C6.48658 55.9349 5.30924 55.1696 4.06984 53.9319C2.83045 52.6942 2.06336 51.5169 1.42384 49.8655C0.937736 48.6192 0.363717 46.7454 0.206854 43.2962C0.0344756 39.5676 0 38.4489 0 29.0026C0 19.5563 0.0379231 18.4393 0.20513 14.7073C0.361994 11.258 0.93946 9.3877 1.42212 8.13796C2.06509 6.48658 2.83217 5.30924 4.06812 4.06812C5.30579 2.83045 6.48313 2.06164 8.13624 1.42212C9.38253 0.936012 11.2563 0.361994 14.7056 0.20513C18.4358 0.0344756 19.5563 0 28.9991 0C38.4454 0 39.5625 0.0379231 43.2944 0.20513C46.7437 0.361994 48.614 0.93946 49.8638 1.42212C51.5151 2.06164 52.6925 2.83045 53.9319 4.06812C55.1713 5.30579 55.9349 6.48486 56.5779 8.13624C57.064 9.38253 57.638 11.2563 57.7949 14.7056C57.9655 18.4375 58 19.5546 58 29.0009C58 38.4437 57.9655 39.5642 57.7949 43.2962C57.638 46.7454 57.0605 48.6192 56.5779 49.8655C55.9349 51.5169 55.1696 52.6942 53.9319 53.9319C52.6942 55.1696 51.5151 55.9349 49.8638 56.5779C48.6175 57.064 46.7437 57.638 43.2944 57.7949C39.5659 57.9655 38.4454 58 28.9991 58C19.5563 58 18.4358 57.9672 14.7073 57.7949Z" fill="url(#paint0_radial_1739_8796)"/>
<path d="M14.7073 57.7949C11.258 57.638 9.38425 57.064 8.13796 56.5779C6.48658 55.9349 5.30924 55.1696 4.06984 53.9319C2.83045 52.6942 2.06336 51.5169 1.42384 49.8655C0.937736 48.6192 0.363717 46.7454 0.206854 43.2962C0.0344756 39.5676 0 38.4489 0 29.0026C0 19.5563 0.0379231 18.4393 0.20513 14.7073C0.361994 11.258 0.93946 9.3877 1.42212 8.13796C2.06509 6.48658 2.83217 5.30924 4.06812 4.06812C5.30579 2.83045 6.48313 2.06164 8.13624 1.42212C9.38253 0.936012 11.2563 0.361994 14.7056 0.20513C18.4358 0.0344756 19.5563 0 28.9991 0C38.4454 0 39.5625 0.0379231 43.2944 0.20513C46.7437 0.361994 48.614 0.93946 49.8638 1.42212C51.5151 2.06164 52.6925 2.83045 53.9319 4.06812C55.1713 5.30579 55.9349 6.48486 56.5779 8.13624C57.064 9.38253 57.638 11.2563 57.7949 14.7056C57.9655 18.4375 58 19.5546 58 29.0009C58 38.4437 57.9655 39.5642 57.7949 43.2962C57.638 46.7454 57.0605 48.6192 56.5779 49.8655C55.9349 51.5169 55.1696 52.6942 53.9319 53.9319C52.6942 55.1696 51.5151 55.9349 49.8638 56.5779C48.6175 57.064 46.7437 57.638 43.2944 57.7949C39.5659 57.9655 38.4454 58 28.9991 58C19.5563 58 18.4358 57.9672 14.7073 57.7949Z" fill="url(#paint1_radial_1739_8796)"/>
<path d="M21.8816 29.1254C21.8816 25.1588 25.0963 21.9424 29.0629 21.9424C33.0295 21.9424 36.2459 25.1588 36.2459 29.1254C36.2459 33.092 33.0295 36.3084 29.0629 36.3084C25.0963 36.3084 21.8816 33.092 21.8816 29.1254ZM17.9986 29.1254C17.9986 35.2362 22.9521 40.1896 29.0629 40.1896C35.1737 40.1896 40.1271 35.2362 40.1271 29.1254C40.1271 23.0146 35.1737 18.0611 29.0629 18.0611C22.9521 18.0611 17.9988 23.0142 17.9988 29.1254M37.9796 17.6224C37.9794 18.1338 38.1309 18.6338 38.4148 19.0591C38.6988 19.4844 39.1025 19.816 39.5749 20.0119C40.0472 20.2078 40.5671 20.2592 41.0687 20.1596C41.5703 20.0601 42.0312 19.814 42.3929 19.4525C42.7547 19.0911 43.0011 18.6304 43.1011 18.1289C43.2011 17.6274 43.1501 17.1075 42.9545 16.6349C42.759 16.1624 42.4278 15.7584 42.0027 15.4741C41.5776 15.1898 41.0777 15.038 40.5663 15.0378H40.5653C39.8798 15.0381 39.2225 15.3105 38.7377 15.7951C38.2529 16.2797 37.9802 16.9369 37.9796 17.6224ZM20.3578 46.6645C18.257 46.5688 17.1152 46.2189 16.3564 45.9233C15.3504 45.5316 14.6326 45.0652 13.8779 44.3115C13.1233 43.5579 12.6561 42.8408 12.2662 41.8348C11.9704 41.0763 11.6205 39.9342 11.525 37.8334C11.4205 35.5621 11.3996 34.8799 11.3996 29.1257C11.3996 23.3716 11.4222 22.6912 11.525 20.418C11.6206 18.3173 11.9731 17.1773 12.2662 16.4166C12.6578 15.4106 13.1243 14.6929 13.8779 13.9382C14.6316 13.1835 15.3487 12.7164 16.3564 12.3264C17.1148 12.0306 18.257 11.6807 20.3578 11.5852C22.629 11.4808 23.3113 11.4599 29.0629 11.4599C34.8144 11.4599 35.4974 11.4821 37.7705 11.5856C39.8713 11.6812 41.0112 12.0338 41.7719 12.3268C42.7779 12.7167 43.4957 13.1849 44.2504 13.9385C45.0051 14.6922 45.4705 15.411 45.8621 16.417C46.1579 17.1754 46.5079 18.3176 46.6034 20.4184C46.7078 22.6915 46.7287 23.3719 46.7287 29.1261C46.7287 34.8802 46.7078 35.5606 46.6034 37.8337C46.5077 39.9345 46.156 41.0763 45.8621 41.8351C45.4705 42.8411 45.004 43.5589 44.2504 44.3119C43.4968 45.0648 42.7779 45.532 41.7719 45.9236C41.0135 46.2194 39.8713 46.5693 37.7705 46.6648C35.4993 46.7693 34.817 46.7901 29.0629 46.7901C23.3087 46.7901 22.6283 46.7693 20.3578 46.6648M20.1794 7.70862C17.8855 7.81308 16.3181 8.17679 14.9493 8.70944C13.5325 9.2595 12.3315 9.99745 11.1323 11.1948C9.93305 12.3921 9.197 13.5933 8.64694 15.0118C8.11429 16.3815 7.75058 17.948 7.64612 20.2419C7.53993 22.5393 7.51562 23.2738 7.51562 29.1254C7.51562 34.9769 7.53993 35.7114 7.64612 38.0089C7.75058 40.3029 8.11429 41.8693 8.64694 43.239C9.197 44.6558 9.93323 45.8591 11.1323 47.0559C12.3313 48.2528 13.5308 48.9897 14.9493 49.5413C16.3207 50.0739 17.8855 50.4377 20.1794 50.5421C22.478 50.6466 23.2113 50.6726 29.0629 50.6726C34.9144 50.6726 35.6489 50.6483 37.9464 50.5421C40.2404 50.4377 41.8068 50.0739 43.1765 49.5413C44.5933 48.9897 45.7942 48.2533 46.9934 47.0559C48.1927 45.8586 48.9272 44.6558 49.4788 43.239C50.0114 41.8693 50.3769 40.3027 50.4796 38.0089C50.5841 35.7097 50.6084 34.9769 50.6084 29.1254C50.6084 23.2738 50.5841 22.5393 50.4796 20.2419C50.3752 17.9479 50.0114 16.3806 49.4788 15.0118C48.9272 13.595 48.1908 12.394 46.9934 11.1948C45.7961 9.99555 44.5933 9.2595 43.1782 8.70944C41.8068 8.17679 40.2402 7.81135 37.9481 7.70862C35.6503 7.60364 34.9161 7.57812 29.0655 7.57812C23.2148 7.57812 22.4789 7.60243 20.1802 7.70862" fill="white"/>
</g>
<defs>
<radialGradient id="paint0_radial_1739_8796" cx="0" cy="0" r="1" gradientUnits="userSpaceOnUse" gradientTransform="translate(3.7537 56.7294) scale(73.6385)">
<stop offset="0.09" stop-color="#FA8F21"/>
<stop offset="0.78" stop-color="#D82D7E"/>
</radialGradient>
<radialGradient id="paint1_radial_1739_8796" cx="0" cy="0" r="1" gradientUnits="userSpaceOnUse" gradientTransform="translate(40.1746 54.867) scale(64.8026)">
<stop offset="0.64" stop-color="#8C3AAA" stop-opacity="0"/>
<stop offset="1" stop-color="#8C3AAA"/>
</radialGradient>
<clipPath id="clip0_1739_8796">
<rect width="58" height="58" fill="white"/>
</clipPath>
</defs>
</svg>
