<svg width="58" height="58" viewBox="0 0 58 58" fill="none" xmlns="http://www.w3.org/2000/svg">
<path d="M58 49.9444C58 54.3943 54.3943 58 49.9444 58H8.05556C3.60728 58 0 54.3943 0 49.9444V8.05556C0 3.60567 3.60728 0 8.05556 0H49.9444C54.3943 0 58 3.60567 58 8.05556V49.9444Z" fill="#0A66C2"/>
<path d="M9.67188 20.9497H17.7274V48.3385H9.67188V20.9497ZM13.6755 17.7274H13.6304C11.2266 17.7274 9.67188 15.9359 9.67188 13.698C9.67188 11.4119 11.2749 9.67188 13.7222 9.67188C16.1727 9.67188 17.6823 11.4119 17.7274 13.698C17.7274 15.9343 16.1727 17.7274 13.6755 17.7274ZM48.3385 48.3385H40.283V33.679C40.283 30.1378 38.3094 27.7212 35.1403 27.7212C32.722 27.7212 31.4138 29.3516 30.779 30.9273C30.547 31.4912 30.6163 33.0507 30.6163 33.8385V48.3385H22.5608V20.9497H30.6163V25.1643C31.7779 23.3663 33.5969 20.9497 38.2498 20.9497C44.0143 20.9497 48.3369 24.5747 48.3369 32.6689L48.3385 48.3385Z" fill="white"/>
</svg>
