<svg width="58" height="58" viewBox="0 0 58 58" fill="none" xmlns="http://www.w3.org/2000/svg">
<path fill-rule="evenodd" clip-rule="evenodd" d="M51.5556 58H6.44444C2.8855 58 0 55.1145 0 51.5556V6.44444C0 2.8855 2.8855 0 6.44444 0H51.5556C55.1145 0 58 2.8855 58 6.44444V51.5556C58 55.1145 55.1145 58 51.5556 58Z" fill="#212121"/>
<path d="M45.529 45.105H35.1582L12.6172 12.8828H22.9879L45.529 45.105ZM36.394 42.3726H40.5232L21.7522 15.6153H17.6229L36.394 42.3726Z" fill="white"/>
<path d="M15.9009 45.1038L27.5057 31.6607L25.988 29.6484L12.6094 45.1038H15.9009Z" fill="white"/>
<path d="M29.7188 25.3222L31.1768 27.3989L43.7129 12.8828H40.4906L29.7188 25.3222Z" fill="white"/>
</svg>
