<svg width="58" height="41" viewBox="0 0 58 41" fill="none" xmlns="http://www.w3.org/2000/svg">
<path d="M56.7878 6.34004C56.1208 3.84476 54.1552 1.8792 51.66 1.2122C47.1372 -3.07295e-07 29 0 29 0C29 0 10.8628 -3.07295e-07 6.34004 1.2122C3.84476 1.8792 1.8792 3.84476 1.2122 6.34004C0 10.8628 0 20.3 0 20.3C0 20.3 0 29.7372 1.2122 34.26C1.8792 36.7552 3.84476 38.7208 6.34004 39.3878C10.8628 40.6 29 40.6 29 40.6C29 40.6 47.1372 40.6 51.66 39.3878C54.1552 38.7208 56.1208 36.7552 56.7878 34.26C58 29.7372 58 20.3 58 20.3C58 20.3 58 10.8628 56.7878 6.34004Z" fill="#FF0000"/>
<path d="M23.2031 28.9938L38.2702 20.2938L23.2031 11.5938V28.9938Z" fill="white"/>
</svg>
